<svg width="35" height="36" viewBox="0 0 35 36" fill="none" xmlns="http://www.w3.org/2000/svg">
<path d="M17.4333 0.599243C16.2203 0.599243 15.2672 1.55231 15.2672 2.76531C15.2672 3.9783 16.2203 4.93137 17.4333 4.93137C18.6463 4.93137 19.5993 3.9783 19.5993 2.76531C19.5993 1.55231 18.6463 0.599243 17.4333 0.599243ZM6.60293 4.93137C5.38994 4.93137 4.43687 5.88444 4.43687 7.09744C4.43687 8.31043 5.38994 9.2635 6.60293 9.2635C7.81593 9.2635 8.769 8.31043 8.769 7.09744C8.769 5.88444 7.81593 4.93137 6.60293 4.93137ZM28.2636 4.93137C27.0506 4.93137 26.0975 5.88444 26.0975 7.09744C26.0975 8.31043 27.0506 9.2635 28.2636 9.2635C29.4766 9.2635 30.4296 8.31043 30.4296 7.09744C30.4296 5.88444 29.4766 4.93137 28.2636 4.93137ZM17.4333 9.2635C12.6679 9.2635 8.769 13.1624 8.769 17.9278C8.769 22.6931 12.6679 26.592 17.4333 26.592C22.1986 26.592 26.0975 22.6931 26.0975 17.9278C26.0975 13.1624 22.1986 9.2635 17.4333 9.2635ZM2.2708 15.7617C1.0578 15.7617 0.104736 16.7148 0.104736 17.9278C0.104736 19.1408 1.0578 20.0938 2.2708 20.0938C3.4838 20.0938 4.43687 19.1408 4.43687 17.9278C4.43687 16.7148 3.4838 15.7617 2.2708 15.7617ZM32.5957 15.7617C31.3827 15.7617 30.4296 16.7148 30.4296 17.9278C30.4296 19.1408 31.3827 20.0938 32.5957 20.0938C33.8087 20.0938 34.7618 19.1408 34.7618 17.9278C34.7618 16.7148 33.8087 15.7617 32.5957 15.7617ZM6.60293 26.592C5.38994 26.592 4.43687 27.5451 4.43687 28.7581C4.43687 29.9711 5.38994 30.9242 6.60293 30.9242C7.81593 30.9242 8.769 29.9711 8.769 28.7581C8.769 27.5451 7.81593 26.592 6.60293 26.592ZM28.2636 26.592C27.0506 26.592 26.0975 27.5451 26.0975 28.7581C26.0975 29.9711 27.0506 30.9242 28.2636 30.9242C29.4766 30.9242 30.4296 29.9711 30.4296 28.7581C30.4296 27.5451 29.4766 26.592 28.2636 26.592ZM17.4333 30.9242C16.2203 30.9242 15.2672 31.8772 15.2672 33.0902C15.2672 34.3032 16.2203 35.2563 17.4333 35.2563C18.6463 35.2563 19.5993 34.3032 19.5993 33.0902C19.5993 31.8772 18.6463 30.9242 17.4333 30.9242Z" fill="white"/>
</svg>
